<svg width="511" height="399" viewBox="0 0 511 399" fill="none" xmlns="http://www.w3.org/2000/svg">
<g id="Group 10">
<g id="undraw_Coding_re_iv62 1">
<path id="Vector" d="M76.4256 351.521C65.3004 360.103 62.1474 375.203 62.1474 375.203C62.1474 375.203 77.0318 376.388 88.157 367.806C99.2822 359.224 102.435 344.124 102.435 344.124C102.435 344.124 87.5508 342.939 76.4256 351.521Z" fill="white"/>
<path id="Vector_2" d="M81.0598 355.55C75.713 368.801 62.3219 375.629 62.3219 375.629C62.3219 375.629 57.5998 360.974 62.9466 347.723C68.2935 334.472 81.6846 327.644 81.6846 327.644C81.6846 327.644 86.4067 342.299 81.0598 355.55Z" fill="white"/>
<path id="Vector_3" d="M401.141 317.244C399.959 309.005 399.647 300.656 400.21 292.346L401.141 278.594C396.009 289.161 397.169 303.069 401.141 317.244V317.244Z" fill="#CACACA"/>
<path id="Vector_4" d="M405.143 319.545C404.574 314.628 404.424 309.669 404.695 304.725L405.143 296.539C402.674 302.829 403.232 311.107 405.143 319.545Z" fill="#CACACA"/>
<path id="Vector_5" d="M422.931 329.669V334.27C422.929 334.636 422.788 334.986 422.538 335.244C422.288 335.502 421.95 335.649 421.597 335.65H419.373C419.315 335.65 419.257 335.662 419.203 335.685C419.149 335.708 419.1 335.742 419.059 335.785C419.017 335.827 418.984 335.878 418.962 335.934C418.94 335.99 418.929 336.05 418.929 336.111V373.841C418.927 374.206 418.786 374.556 418.536 374.815C418.286 375.073 417.948 375.219 417.595 375.221H390.472C390.118 375.221 389.779 375.075 389.529 374.817C389.279 374.558 389.138 374.207 389.138 373.841V336.111C389.137 335.989 389.09 335.872 389.007 335.786C388.924 335.699 388.811 335.651 388.693 335.65H386.025C385.672 335.65 385.333 335.505 385.082 335.246C384.832 334.987 384.692 334.636 384.691 334.27V329.669C384.691 329.487 384.725 329.308 384.792 329.14C384.859 328.973 384.958 328.82 385.082 328.692C385.205 328.564 385.353 328.462 385.515 328.393C385.677 328.324 385.85 328.288 386.025 328.288H421.597C421.95 328.289 422.289 328.435 422.539 328.694C422.789 328.953 422.93 329.303 422.931 329.669Z" fill="white"/>
<path id="Vector_6" d="M418.969 336.617H389.178V337.997H418.969V336.617Z" fill="#E6E6E6"/>
<path id="Vector_7" d="M418.929 356.929C408.96 361.198 398.883 361.245 388.693 356.929V347.204C398.502 343.795 409.119 343.795 418.929 347.204V356.929Z" fill="#3F88C5"/>
<path id="Ellipse 276" d="M251.947 208.238C274.201 208.238 292.241 189.569 292.241 166.54C292.241 143.512 274.201 124.843 251.947 124.843C229.693 124.843 211.653 143.512 211.653 166.54C211.653 189.569 229.693 208.238 251.947 208.238Z" fill="#FEB8B8"/>
<path id="Path 1461" d="M289.582 130.568C283.558 120.444 274.128 112.985 263.107 109.625L258.161 113.361V108.51C255.514 108.091 252.835 107.93 250.159 108.028L245.892 112.024V108.36C239.573 109.173 233.485 111.331 228.012 114.7C222.54 118.068 217.801 122.574 214.095 127.932C204.827 141.758 203.262 160.994 212.378 174.931C214.88 166.973 217.918 159.506 220.421 151.548C222.387 151.826 224.381 151.836 226.35 151.578L229.394 144.227L230.245 151.267C239.682 150.417 253.678 148.548 262.624 146.837L261.754 141.436L266.959 145.924C269.699 145.271 271.327 144.679 271.192 144.226C277.846 155.326 285.988 162.415 292.641 173.515C295.168 157.864 298.076 144.85 289.582 130.568Z" fill="#2F2E41"/>
<path id="Vector_8" d="M338.608 273.766C337.222 265.14 335.793 256.348 331.919 248.577C329.373 243.487 325.331 238.637 319.882 237.63C318.809 237.531 317.754 237.279 316.748 236.879C315.152 236.084 293.697 223.41 290.287 221.202C287.36 219.307 282.738 215.799 280.407 215.799C278.063 215.745 269.073 217.911 233.985 215.072C233.985 215.072 224.346 219.004 216.887 223.771C216.774 223.694 180.468 243.869 179.104 243.816C176.521 243.703 174.12 245.415 172.64 247.57C171.159 249.725 170.465 252.393 169.738 254.973C177.667 273.247 184.923 291.545 192.853 309.819C193.224 310.507 193.422 311.281 193.427 312.07C193.267 312.888 192.93 313.658 192.44 314.321C188.551 320.785 188.675 328.916 189.1 336.514C189.525 344.113 190.05 352.138 186.769 358.949C185.877 360.818 184.716 362.53 183.867 364.4C181.879 368.634 181.161 382.179 182.322 386.729L327.793 391.041C324.665 382.144 338.608 273.766 338.608 273.766Z" fill="#E94F37"/>
<path id="Path 1421" d="M157.163 310.629C156.873 312.802 156.844 315.004 157.076 317.184L159.161 348.17C159.357 351.09 159.55 354.003 159.814 356.917C160.315 362.57 161.062 368.179 161.99 373.779C162.01 374.574 162.335 375.328 162.893 375.876C163.451 376.424 164.195 376.72 164.964 376.7C174.142 378.709 183.625 378.629 192.991 378.081C207.285 377.256 243.852 375.694 246.087 372.691C248.321 369.688 247.019 364.83 244.106 362.401C241.193 359.973 192.936 354.052 192.936 354.052C193.408 350.186 194.83 346.544 196.179 342.873C198.603 336.362 200.867 329.637 200.91 322.661C200.954 315.686 198.414 308.353 192.893 304.357C188.351 301.076 182.503 300.468 176.968 300.603C172.941 300.722 165.983 299.724 162.305 301.353C159.394 302.68 157.707 307.68 157.163 310.629Z" fill="#FBBEBE"/>
<path id="Path 1430" d="M169.318 255.529C168.611 256.295 168.063 257.202 167.708 258.195C161.843 271.872 158.379 286.521 157.478 301.455C157.494 302.184 157.331 302.904 157.006 303.55C156.686 303.98 156.329 304.38 155.94 304.744C155.601 305.16 155.344 305.641 155.184 306.16C155.025 306.679 154.966 307.225 155.01 307.767C155.055 308.309 155.202 308.837 155.444 309.321C155.685 309.804 156.017 310.234 156.419 310.585C156.485 310.642 156.552 310.697 156.622 310.751C157.819 308.419 160.684 307.657 163.232 307.455C175.428 306.456 187.341 312.328 199.573 311.885C198.71 308.799 197.469 305.833 196.765 302.71C193.652 288.843 201.416 273.745 196.656 260.388C195.706 257.715 194.117 255.087 191.614 253.916C190.578 253.483 189.493 253.186 188.386 253.031C185.295 252.453 179.142 249.983 176.153 250.974C175.05 251.343 174.615 252.416 173.701 253.064C172.312 253.982 170.469 254.32 169.318 255.529Z" fill="#E94F37"/>
<path id="Path 1421_2" d="M338.695 301.353C335.017 299.724 328.059 300.722 324.032 300.603C318.497 300.467 312.649 301.076 308.107 304.357C302.586 308.353 300.046 315.686 300.09 322.661C300.133 329.637 302.397 336.362 304.821 342.873C306.17 346.544 307.592 350.186 308.064 354.052C308.064 354.052 259.807 359.973 256.894 362.401C253.981 364.83 252.679 369.688 254.913 372.691C257.147 375.694 326.858 378.709 336.036 376.7C336.804 376.72 337.549 376.424 338.107 375.876C338.665 375.328 338.99 374.574 339.01 373.779C339.938 368.179 340.685 362.57 341.186 356.917C341.45 354.003 341.643 351.09 341.839 348.17L343.924 317.184C344.156 315.004 344.127 312.802 343.837 310.629C343.293 307.68 341.606 302.68 338.695 301.353Z" fill="#FBBEBE"/>
<path id="Path 1430_2" d="M327.299 253.064C326.385 252.416 325.95 251.343 324.847 250.974C321.858 249.983 315.705 252.453 312.614 253.031C311.507 253.186 310.422 253.483 309.386 253.916C306.883 255.087 305.294 257.715 304.344 260.388C299.584 273.745 307.348 288.843 304.235 302.71C303.531 305.833 302.29 308.799 301.427 311.885C313.659 312.328 325.572 306.456 337.768 307.455C340.316 307.657 343.181 308.419 344.378 310.751C344.448 310.697 344.515 310.642 344.581 310.585C344.983 310.234 345.315 309.804 345.556 309.321C345.798 308.837 345.945 308.309 345.99 307.767C346.034 307.225 345.975 306.679 345.816 306.16C345.656 305.641 345.399 305.16 345.06 304.744C344.671 304.38 344.314 303.98 343.994 303.55C343.669 302.904 343.506 302.184 343.522 301.455C342.621 286.521 339.157 271.872 333.292 258.195C332.937 257.202 332.389 256.295 331.682 255.529C330.531 254.32 328.688 253.982 327.299 253.064Z" fill="#E94F37"/>
<path id="Vector_9" d="M240.013 378.179C246.019 378.179 250.888 373.141 250.888 366.925C250.888 360.71 246.019 355.671 240.013 355.671C234.007 355.671 229.138 360.71 229.138 366.925C229.138 373.141 234.007 378.179 240.013 378.179Z" fill="#FBBEBE"/>
<path id="Vector_10" d="M264.094 378.179C270.101 378.179 274.97 373.141 274.97 366.925C274.97 360.71 270.101 355.671 264.094 355.671C258.088 355.671 253.219 360.71 253.219 366.925C253.219 373.141 258.088 378.179 264.094 378.179Z" fill="#FBBEBE"/>
<path id="Vector_11" d="M331.225 392.285H181.814C180.07 392.283 178.397 391.565 177.164 390.289C175.93 389.012 175.236 387.282 175.234 385.476V291.676C175.236 289.871 175.93 288.141 177.164 286.864C178.397 285.588 180.07 284.87 181.814 284.868H331.225C332.97 284.87 334.642 285.588 335.876 286.864C337.109 288.141 337.803 289.871 337.805 291.676V385.476C337.803 387.282 337.109 389.012 335.876 390.289C334.642 391.565 332.97 392.283 331.225 392.285Z" fill="#3F3D56"/>
<path id="Ellipse 263" d="M256.157 343.081C258.561 343.081 260.51 341.064 260.51 338.576C260.51 336.088 258.561 334.072 256.157 334.072C253.753 334.072 251.804 336.088 251.804 338.576C251.804 341.064 253.753 343.081 256.157 343.081Z" fill="white"/>
<path id="Vector_12" d="M501 373.365H0V389.297H29.6336V393H471.378V389.297H501V373.365Z" fill="#3F88C5"/>
<path id="Vector_13" d="M214.894 182.082C208.419 182.082 203.171 176.209 203.171 168.965V162.407C203.171 155.162 208.419 149.29 214.894 149.29V182.082H214.894Z" fill="#E94F37"/>
<path id="Vector_14" d="M289.718 149.29C296.193 149.29 301.441 155.163 301.441 162.407V168.965C301.441 176.209 296.193 182.082 289.718 182.082V149.29Z" fill="#E94F37"/>
<path id="Vector_15" d="M295.861 163.437H294.001C294.001 137.044 274.81 115.571 251.221 115.571C227.632 115.571 208.441 137.044 208.441 163.437H206.581C206.581 135.896 226.606 113.49 251.221 113.49C275.836 113.49 295.861 135.896 295.861 163.437Z" fill="#E94F37"/>
</g>
<path id="Vector_16" fill-rule="evenodd" clip-rule="evenodd" d="M466.319 147.741C472.489 180.266 496.988 212.393 480.752 243.585C464.465 274.877 418.478 283.167 385.541 302.935C348.946 324.899 319.743 370.626 277.295 365.696C234.302 360.703 232.182 306.278 201.123 281.517C170.998 257.5 113.445 258.572 100.351 224.63C87.2633 190.706 112.764 151.121 139.221 121.061C162.52 94.5913 202.442 87.6117 235.668 70.8904C268.391 54.4219 295.355 27.4385 332.202 23.9403C372.721 20.0936 417.545 26.4549 444.233 51.09C470.399 75.2436 460.004 114.458 466.319 147.741Z" fill="#478C7F"/>
<g id="undraw_Coding_re_iv62 2">
<path id="Vector_17" d="M76.4256 351.521C65.3004 360.103 62.1474 375.203 62.1474 375.203C62.1474 375.203 77.0318 376.388 88.157 367.806C99.2822 359.224 102.435 344.124 102.435 344.124C102.435 344.124 87.5508 342.939 76.4256 351.521Z" fill="white"/>
<path id="Vector_18" d="M81.0598 355.55C75.713 368.801 62.3219 375.629 62.3219 375.629C62.3219 375.629 57.5998 360.974 62.9466 347.723C68.2935 334.472 81.6846 327.644 81.6846 327.644C81.6846 327.644 86.4067 342.299 81.0598 355.55Z" fill="white"/>
<path id="Vector_19" d="M401.141 317.244C399.959 309.005 399.647 300.656 400.21 292.346L401.141 278.594C396.009 289.161 397.169 303.069 401.141 317.244V317.244Z" fill="#CACACA"/>
<path id="Vector_20" d="M405.143 319.545C404.574 314.628 404.424 309.669 404.695 304.725L405.143 296.539C402.674 302.829 403.232 311.107 405.143 319.545Z" fill="#CACACA"/>
<path id="Vector_21" d="M422.931 329.669V334.27C422.929 334.636 422.788 334.986 422.538 335.244C422.288 335.502 421.95 335.649 421.597 335.65H419.373C419.315 335.65 419.257 335.662 419.203 335.685C419.149 335.708 419.1 335.742 419.059 335.785C419.017 335.827 418.984 335.878 418.962 335.934C418.94 335.99 418.929 336.05 418.929 336.111V373.841C418.927 374.206 418.786 374.556 418.536 374.815C418.286 375.073 417.948 375.219 417.595 375.221H390.472C390.118 375.221 389.779 375.075 389.529 374.817C389.279 374.558 389.138 374.207 389.138 373.841V336.111C389.137 335.989 389.09 335.872 389.007 335.786C388.924 335.699 388.811 335.651 388.693 335.65H386.025C385.672 335.65 385.333 335.505 385.082 335.246C384.832 334.987 384.692 334.636 384.691 334.27V329.669C384.691 329.487 384.725 329.308 384.792 329.14C384.859 328.973 384.958 328.82 385.082 328.692C385.205 328.564 385.353 328.462 385.515 328.393C385.677 328.324 385.85 328.288 386.025 328.288H421.597C421.95 328.289 422.289 328.435 422.539 328.694C422.789 328.953 422.93 329.303 422.931 329.669Z" fill="white"/>
<path id="Vector_22" d="M418.969 336.617H389.178V337.997H418.969V336.617Z" fill="#E6E6E6"/>
<path id="Vector_23" d="M418.929 356.929C408.96 361.198 398.883 361.245 388.693 356.929V347.204C398.502 343.795 409.119 343.795 418.929 347.204V356.929Z" fill="#3F88C5"/>
<path id="Ellipse 276_2" d="M251.947 208.238C274.201 208.238 292.241 189.569 292.241 166.54C292.241 143.512 274.201 124.843 251.947 124.843C229.693 124.843 211.653 143.512 211.653 166.54C211.653 189.569 229.693 208.238 251.947 208.238Z" fill="#FEB8B8"/>
<path id="Path 1461_2" d="M289.582 130.568C283.558 120.444 274.128 112.985 263.107 109.625L258.161 113.361V108.51C255.514 108.091 252.835 107.93 250.159 108.028L245.892 112.024V108.36C239.573 109.173 233.485 111.331 228.012 114.7C222.54 118.068 217.801 122.574 214.095 127.932C204.827 141.758 203.262 160.994 212.378 174.931C214.88 166.973 217.918 159.506 220.421 151.548C222.387 151.826 224.381 151.836 226.35 151.578L229.394 144.227L230.245 151.267C239.682 150.417 253.678 148.548 262.624 146.837L261.754 141.436L266.959 145.924C269.699 145.271 271.327 144.679 271.192 144.226C277.846 155.326 285.988 162.415 292.641 173.515C295.168 157.864 298.076 144.85 289.582 130.568Z" fill="#2F2E41"/>
<path id="Vector_24" d="M338.608 273.766C337.222 265.14 335.793 256.348 331.919 248.577C329.373 243.487 325.331 238.637 319.882 237.63C318.809 237.531 317.754 237.279 316.748 236.879C315.152 236.084 293.697 223.41 290.287 221.202C287.36 219.307 282.738 215.799 280.407 215.799C278.063 215.745 269.073 217.911 233.985 215.072C233.985 215.072 224.346 219.004 216.887 223.771C216.774 223.694 180.468 243.869 179.104 243.816C176.521 243.703 174.12 245.415 172.64 247.57C171.159 249.725 170.465 252.393 169.738 254.973C177.667 273.247 184.923 291.545 192.853 309.819C193.224 310.507 193.422 311.281 193.427 312.07C193.267 312.888 192.93 313.658 192.44 314.321C188.551 320.785 188.675 328.916 189.1 336.514C189.525 344.113 190.05 352.138 186.769 358.949C185.877 360.818 184.716 362.53 183.867 364.4C181.879 368.634 181.161 382.179 182.322 386.729L327.793 391.041C324.665 382.144 338.608 273.766 338.608 273.766Z" fill="#E94F37"/>
<path id="Path 1421_3" d="M157.163 310.629C156.873 312.802 156.844 315.004 157.076 317.184L159.161 348.17C159.357 351.09 159.55 354.003 159.814 356.917C160.315 362.57 161.062 368.179 161.99 373.779C162.01 374.574 162.335 375.328 162.893 375.876C163.451 376.424 164.195 376.72 164.964 376.7C174.142 378.709 183.625 378.629 192.991 378.081C207.285 377.256 243.852 375.694 246.087 372.691C248.321 369.688 247.019 364.83 244.106 362.401C241.193 359.973 192.936 354.052 192.936 354.052C193.408 350.186 194.83 346.544 196.179 342.873C198.603 336.362 200.867 329.637 200.91 322.661C200.954 315.686 198.414 308.353 192.893 304.357C188.351 301.076 182.503 300.468 176.968 300.603C172.941 300.722 165.983 299.724 162.305 301.353C159.394 302.68 157.707 307.68 157.163 310.629Z" fill="#FBBEBE"/>
<path id="Path 1430_3" d="M169.318 255.529C168.611 256.295 168.063 257.202 167.708 258.195C161.843 271.872 158.379 286.521 157.478 301.455C157.494 302.184 157.331 302.904 157.006 303.55C156.686 303.98 156.329 304.38 155.94 304.744C155.601 305.16 155.344 305.641 155.184 306.16C155.025 306.679 154.966 307.225 155.01 307.767C155.055 308.309 155.202 308.837 155.444 309.321C155.685 309.804 156.017 310.234 156.419 310.585C156.485 310.642 156.552 310.697 156.622 310.751C157.819 308.419 160.684 307.657 163.232 307.455C175.428 306.456 187.341 312.328 199.573 311.885C198.71 308.799 197.469 305.833 196.765 302.71C193.652 288.843 201.416 273.745 196.656 260.388C195.706 257.715 194.117 255.087 191.614 253.916C190.578 253.483 189.493 253.186 188.386 253.031C185.295 252.453 179.142 249.983 176.153 250.974C175.05 251.343 174.615 252.416 173.701 253.064C172.312 253.982 170.469 254.32 169.318 255.529Z" fill="#E94F37"/>
<path id="Path 1421_4" d="M338.695 301.353C335.017 299.724 328.059 300.722 324.032 300.603C318.497 300.467 312.649 301.076 308.107 304.357C302.586 308.353 300.046 315.686 300.09 322.661C300.133 329.637 302.397 336.362 304.821 342.873C306.17 346.544 307.592 350.186 308.064 354.052C308.064 354.052 259.807 359.973 256.894 362.401C253.981 364.83 252.679 369.688 254.913 372.691C257.147 375.694 326.858 378.709 336.036 376.7C336.804 376.72 337.549 376.424 338.107 375.876C338.665 375.328 338.99 374.574 339.01 373.779C339.938 368.179 340.685 362.57 341.186 356.917C341.45 354.003 341.643 351.09 341.839 348.17L343.924 317.184C344.156 315.004 344.127 312.802 343.837 310.629C343.293 307.68 341.606 302.68 338.695 301.353Z" fill="#FBBEBE"/>
<path id="Path 1430_4" d="M327.299 253.064C326.385 252.416 325.95 251.343 324.847 250.974C321.858 249.983 315.705 252.453 312.614 253.031C311.507 253.186 310.422 253.483 309.386 253.916C306.883 255.087 305.294 257.715 304.344 260.388C299.584 273.745 307.348 288.843 304.235 302.71C303.531 305.833 302.29 308.799 301.427 311.885C313.659 312.328 325.572 306.456 337.768 307.455C340.316 307.657 343.181 308.419 344.378 310.751C344.448 310.697 344.515 310.642 344.581 310.585C344.983 310.234 345.315 309.804 345.556 309.321C345.798 308.837 345.945 308.309 345.99 307.767C346.034 307.225 345.975 306.679 345.816 306.16C345.656 305.641 345.399 305.16 345.06 304.744C344.671 304.38 344.314 303.98 343.994 303.55C343.669 302.904 343.506 302.184 343.522 301.455C342.621 286.521 339.157 271.872 333.292 258.195C332.937 257.202 332.389 256.295 331.682 255.529C330.531 254.32 328.688 253.982 327.299 253.064Z" fill="#E94F37"/>
<path id="Vector_25" d="M240.013 378.179C246.019 378.179 250.888 373.141 250.888 366.925C250.888 360.71 246.019 355.671 240.013 355.671C234.007 355.671 229.138 360.71 229.138 366.925C229.138 373.141 234.007 378.179 240.013 378.179Z" fill="#FBBEBE"/>
<path id="Vector_26" d="M264.094 378.179C270.101 378.179 274.97 373.141 274.97 366.925C274.97 360.71 270.101 355.671 264.094 355.671C258.088 355.671 253.219 360.71 253.219 366.925C253.219 373.141 258.088 378.179 264.094 378.179Z" fill="#FBBEBE"/>
<path id="Vector_27" d="M331.225 392.285H181.814C180.07 392.283 178.397 391.565 177.164 390.289C175.93 389.012 175.236 387.282 175.234 385.476V291.676C175.236 289.871 175.93 288.141 177.164 286.864C178.397 285.588 180.07 284.87 181.814 284.868H331.225C332.97 284.87 334.642 285.588 335.876 286.864C337.109 288.141 337.803 289.871 337.805 291.676V385.476C337.803 387.282 337.109 389.012 335.876 390.289C334.642 391.565 332.97 392.283 331.225 392.285Z" fill="#3F3D56"/>
<path id="Ellipse 263_2" d="M256.157 343.081C258.561 343.081 260.51 341.064 260.51 338.576C260.51 336.088 258.561 334.072 256.157 334.072C253.753 334.072 251.804 336.088 251.804 338.576C251.804 341.064 253.753 343.081 256.157 343.081Z" fill="white"/>
<path id="Vector_28" d="M501 373.365H0V389.297H29.6336V393H471.378V389.297H501V373.365Z" fill="#3F88C5"/>
<path id="Vector_29" d="M214.894 182.082C208.419 182.082 203.171 176.209 203.171 168.965V162.407C203.171 155.162 208.419 149.29 214.894 149.29V182.082H214.894Z" fill="#E94F37"/>
<path id="Vector_30" d="M289.718 149.29C296.193 149.29 301.441 155.163 301.441 162.407V168.965C301.441 176.209 296.193 182.082 289.718 182.082V149.29Z" fill="#E94F37"/>
<path id="Vector_31" d="M295.861 163.437H294.001C294.001 137.044 274.81 115.571 251.221 115.571C227.632 115.571 208.441 137.044 208.441 163.437H206.581C206.581 135.896 226.606 113.49 251.221 113.49C275.836 113.49 295.861 135.896 295.861 163.437Z" fill="#E94F37"/>
</g>
</g>
</svg>
